<svg width="139" height="36" viewBox="0 0 139 36" fill="none" xmlns="http://www.w3.org/2000/svg">
<path d="M49 11.504C48.712 11.472 48.512 11.456 48.4 11.456C48 11.456 47.696 11.536 47.488 11.696C47.28 11.84 47.136 12.096 47.056 12.464H49V16.904H47.008V26H41.68V16.904H40.24V12.464H41.68C41.712 10.704 42.264 9.344 43.336 8.384C44.424 7.408 45.944 6.92 47.896 6.92C48.12 6.92 48.488 6.936 49 6.968V11.504ZM53.1224 11.384C52.1944 11.384 51.4504 11.136 50.8904 10.64C50.3304 10.144 50.0504 9.52 50.0504 8.768C50.0504 8 50.3304 7.368 50.8904 6.872C51.4504 6.36 52.1944 6.104 53.1224 6.104C54.0344 6.104 54.7704 6.36 55.3304 6.872C55.8904 7.368 56.1704 8 56.1704 8.768C56.1704 9.52 55.8904 10.144 55.3304 10.64C54.7704 11.136 54.0344 11.384 53.1224 11.384ZM55.7624 12.464V26H50.4344V12.464H55.7624ZM63.4968 8.24V26H58.1688V8.24H63.4968ZM83.9751 12.368C85.7031 12.368 87.0391 12.888 87.9831 13.928C88.9431 14.968 89.4231 16.376 89.4231 18.152V26H84.1191V18.824C84.1191 18.248 83.9431 17.8 83.5911 17.48C83.2551 17.144 82.7991 16.976 82.2231 16.976C81.6311 16.976 81.1671 17.144 80.8311 17.48C80.4951 17.8 80.3271 18.248 80.3271 18.824V26H75.0231V18.824C75.0231 18.248 74.8471 17.8 74.4951 17.48C74.1591 17.144 73.7031 16.976 73.1271 16.976C72.5351 16.976 72.0711 17.144 71.7351 17.48C71.3991 17.8 71.2311 18.248 71.2311 18.824V26H65.9031V12.464H71.2311V14.288C71.6151 13.712 72.1351 13.248 72.7911 12.896C73.4631 12.544 74.2471 12.368 75.1431 12.368C76.1191 12.368 76.9831 12.584 77.7351 13.016C78.4871 13.432 79.0871 14.024 79.5351 14.792C80.0311 14.088 80.6631 13.512 81.4311 13.064C82.1991 12.6 83.0471 12.368 83.9751 12.368ZM93.9873 22.724C93.9873 22.044 94.1233 21.452 94.3953 20.948C94.6673 20.436 95.0433 20.044 95.5233 19.772C96.0033 19.492 96.5513 19.352 97.1673 19.352C97.9753 19.352 98.6393 19.552 99.1593 19.952C99.6873 20.352 100.027 20.896 100.179 21.584H99.2793C99.1673 21.112 98.9233 20.744 98.5473 20.48C98.1793 20.208 97.7193 20.072 97.1673 20.072C96.7273 20.072 96.3313 20.172 95.9793 20.372C95.6273 20.572 95.3473 20.872 95.1393 21.272C94.9393 21.664 94.8393 22.148 94.8393 22.724C94.8393 23.3 94.9393 23.788 95.1393 24.188C95.3473 24.588 95.6273 24.888 95.9793 25.088C96.3313 25.288 96.7273 25.388 97.1673 25.388C97.7193 25.388 98.1793 25.256 98.5473 24.992C98.9233 24.72 99.1673 24.344 99.2793 23.864H100.179C100.027 24.536 99.6873 25.076 99.1593 25.484C98.6313 25.892 97.9673 26.096 97.1673 26.096C96.5513 26.096 96.0033 25.96 95.5233 25.688C95.0433 25.408 94.6673 25.016 94.3953 24.512C94.1233 24 93.9873 23.404 93.9873 22.724ZM107.191 18.212C107.023 18.212 106.879 18.152 106.759 18.032C106.639 17.912 106.579 17.764 106.579 17.588C106.579 17.412 106.639 17.268 106.759 17.156C106.879 17.036 107.023 16.976 107.191 16.976C107.359 16.976 107.503 17.036 107.623 17.156C107.743 17.268 107.803 17.412 107.803 17.588C107.803 17.764 107.743 17.912 107.623 18.032C107.503 18.152 107.359 18.212 107.191 18.212ZM107.611 19.448V26H106.771V19.448H107.611ZM119.953 19.448L116.065 29.084H115.189L116.461 25.964L113.773 19.448H114.697L116.929 25.04L119.089 19.448H119.953ZM126.552 18.212C126.384 18.212 126.24 18.152 126.12 18.032C126 17.912 125.94 17.764 125.94 17.588C125.94 17.412 126 17.268 126.12 17.156C126.24 17.036 126.384 16.976 126.552 16.976C126.72 16.976 126.864 17.036 126.984 17.156C127.104 17.268 127.164 17.412 127.164 17.588C127.164 17.764 127.104 17.912 126.984 18.032C126.864 18.152 126.72 18.212 126.552 18.212ZM126.972 19.448V26H126.132V19.448H126.972ZM134.358 25.304H137.79V26H133.398V25.304L136.77 20.144H133.458V19.448H137.73V20.144L134.358 25.304Z" fill="white"/>
<g clip-path="url(#clip0_2_32)">
<path d="M27.4433 15.3622C28.8092 16.1255 28.8092 18.0907 27.4433 18.854L6.89456 30.3371C5.56142 31.0821 3.91892 30.1184 3.91892 28.5913V17.1081V5.62497C3.91892 4.09779 5.56142 3.13409 6.89456 3.87908L27.4433 15.3622Z" fill="white"/>
<g filter="url(#filter0_d_2_32)">
<path d="M18.8784 16.634C19.545 17.0189 19.545 17.9811 18.8784 18.366L10.7095 23.0823C10.0428 23.4672 9.20946 22.9861 9.20946 22.2163L9.20946 12.7837C9.20946 12.0139 10.0428 11.5327 10.7095 11.9176L18.8784 16.634Z" fill="url(#paint0_linear_2_32)"/>
</g>
</g>
<defs>
<filter id="filter0_d_2_32" x="6.20946" y="11.7822" width="16.1689" height="17.4357" filterUnits="userSpaceOnUse" color-interpolation-filters="sRGB">
<feFlood flood-opacity="0" result="BackgroundImageFix"/>
<feColorMatrix in="SourceAlpha" type="matrix" values="0 0 0 0 0 0 0 0 0 0 0 0 0 0 0 0 0 0 127 0" result="hardAlpha"/>
<feOffset dy="3"/>
<feGaussianBlur stdDeviation="1.5"/>
<feComposite in2="hardAlpha" operator="out"/>
<feColorMatrix type="matrix" values="0 0 0 0 0 0 0 0 0 0 0 0 0 0 0 0 0 0 0.25 0"/>
<feBlend mode="normal" in2="BackgroundImageFix" result="effect1_dropShadow_2_32"/>
<feBlend mode="normal" in="SourceGraphic" in2="effect1_dropShadow_2_32" result="shape"/>
</filter>
<linearGradient id="paint0_linear_2_32" x1="20.3784" y1="17.5" x2="5.48649" y2="17.5" gradientUnits="userSpaceOnUse">
<stop stop-color="#FF4DE2"/>
<stop offset="1" stop-color="#9B35EC"/>
</linearGradient>
<clipPath id="clip0_2_32">
<rect y="3" width="29" height="29" fill="white"/>
</clipPath>
</defs>
</svg>
