<?xml version="1.0" standalone="no"?>
<!DOCTYPE svg PUBLIC "-//W3C//DTD SVG 20010904//EN"
 "http://www.w3.org/TR/2001/REC-SVG-20010904/DTD/svg10.dtd">
<svg version="1.0" xmlns="http://www.w3.org/2000/svg"
 width="139.000000pt" height="139.000000pt" viewBox="0 0 139.000000 139.000000"
 preserveAspectRatio="xMidYMid meet">
<metadata>
Created by potrace 1.14, written by Peter Selinger 2001-2017
</metadata>
<g transform="translate(0.000000,139.000000) scale(0.100000,-0.100000)"
fill="#000000" stroke="none">
<path d="M233 1258 c-12 -6 -26 -22 -32 -37 -6 -16 -10 -214 -10 -522 l1 -496
22 -27 c33 -43 75 -39 171 16 44 25 116 64 160 88 44 24 94 51 110 60 17 10
46 26 65 36 19 11 37 21 40 24 3 3 21 13 40 24 19 10 53 29 75 41 22 13 103
58 180 102 156 87 175 108 155 168 -7 20 -23 40 -38 48 -15 8 -178 98 -362
201 -184 104 -360 202 -390 219 -30 17 -68 39 -85 49 -33 20 -69 22 -102 6z"/>
</g>
</svg>
